<?xml version="1.0" encoding="UTF-8"?>
<!DOCTYPE svg PUBLIC "-//W3C//DTD SVG 1.1//EN" "http://www.w3.org/Graphics/SVG/1.1/DTD/svg11.dtd">
<!-- Creator: CorelDRAW -->
<svg xmlns="http://www.w3.org/2000/svg" xml:space="preserve" width="67.1429mm" height="13.5161mm" style="shape-rendering:geometricPrecision; text-rendering:geometricPrecision; image-rendering:optimizeQuality; fill-rule:evenodd; clip-rule:evenodd"
viewBox="0 0 111.905 22.5268"
 xmlns:xlink="http://www.w3.org/1999/xlink">
 <defs>
  <style type="text/css">
   <![CDATA[
    .fil3 {fill:#00468E;fill-rule:nonzero}
    .fil2 {fill:#00468E;fill-rule:nonzero}
    .fil1 {fill:#532367;fill-rule:nonzero}
    .fil0 {fill:url(#id0);fill-rule:nonzero}
   ]]>
  </style>
  <linearGradient id="id0" gradientUnits="userSpaceOnUse" x1="48.8538" y1="6.01449" x2="98.6884" y2="19.6465">
   <stop offset="0" style="stop-color:#DD137B"/>
   <stop offset="0.619608" style="stop-color:#9F1D7B"/>
   <stop offset="1" style="stop-color:#61277A"/>
  </linearGradient>
 </defs>
 <g id="Layer_x0020_1">
  <metadata id="CorelCorpID_0Corel-Layer"/>
  <path class="fil0" d="M51.3209 12.4145l-0.451833 9.85365 3.53183 0 0.451833 -9.85365 3.181 0 0.141 -3.07766 -3.18083 0 0.0876665 -1.91366c0.0281666,-0.435499 0.147166,-0.750166 0.360333,-0.939665 0.213166,-0.189666 0.476166,-0.280333 0.797332,-0.276 0.188,0 0.390999,0.0301666 0.601166,0.0904999 0.214333,0.0604999 0.423499,0.142333 0.635832,0.245833l0.916332 -3.05183c-0.432833,-0.116333 -0.846165,-0.206833 -1.24416,-0.267333 -0.393666,-0.0644999 -0.767999,-0.0948332 -1.1185,-0.0948332 -0.889332,0 -1.661,0.168166 -2.31483,0.500166 -0.653999,0.331833 -1.165,0.823165 -1.537,1.47416 -0.371999,0.646499 -0.583999,1.44816 -0.631832,2.3965l-0.0841665 1.83616 -1.67816 0 -0.141166 3.07766 1.67816 0zm8.61799 6.51732c-0.0374999,0.909499 0.0716666,1.62516 0.327166,2.151 0.255666,0.525833 0.622499,0.900832 1.10083,1.12066 0.478333,0.219833 1.03283,0.327666 1.66333,0.323333 0.417666,-0.00433333 0.836999,-0.0431666 1.2665,-0.125 0.429333,-0.0776666 0.847499,-0.185333 1.2585,-0.314666l-0.362333 -3.026c-0.166333,0.0776666 -0.3235,0.138 -0.475666,0.176833 -0.147833,0.0386666 -0.286333,0.0559999 -0.411666,0.0559999 -0.288,0 -0.496166,-0.1035 -0.628832,-0.306 -0.128166,-0.207 -0.185333,-0.508666 -0.167,-0.909499l0.673666 -14.69 -3.53166 0 -0.712832 15.5433zm13.3351 -6.77582c0.609332,0.00416666 1.1035,0.155166 1.48633,0.452499 0.383166,0.293166 0.660166,0.715499 0.827332,1.25866 0.167,0.543166 0.2335,1.18966 0.199166,1.93533 -0.0341666,0.745666 -0.159666,1.388 -0.376666,1.9355 -0.217,0.542999 -0.532499,0.961165 -0.942665,1.2585 -0.410333,0.2975 -0.918165,0.448333 -1.528,0.452666 -0.608999,-0.00433333 -1.10733,-0.155166 -1.4945,-0.452666 -0.386999,-0.297333 -0.664332,-0.715499 -0.835499,-1.2585 -0.1755,-0.547499 -0.241833,-1.18983 -0.207666,-1.9355 0.0341666,-0.745666 0.159666,-1.39216 0.385166,-1.93533 0.221,-0.543166 0.536833,-0.965499 0.950832,-1.25866 0.414499,-0.297333 0.926665,-0.448333 1.53616,-0.452499zm-0.475499 10.3708c1.03967,-0.00433333 1.957,-0.163833 2.74816,-0.482833 0.790999,-0.319 1.45916,-0.775832 2.00383,-1.36633 0.540499,-0.590499 0.961165,-1.2975 1.25783,-2.12083 0.292333,-0.823165 0.463833,-1.74133 0.510333,-2.75433 0.0463333,-1.01283 -0.0409999,-1.931 -0.257666,-2.75433 -0.221166,-0.823332 -0.576999,-1.53016 -1.06333,-2.12066 -0.490666,-0.590499 -1.11683,-1.0475 -1.8785,-1.3665 -0.761999,-0.318833 -1.66466,-0.478333 -2.704,-0.482666 -1.0395,0.00433333 -1.957,0.163833 -2.75233,0.482666 -0.790999,0.319 -1.46333,0.775999 -2.008,1.3665 -0.548833,0.590499 -0.969499,1.29733 -1.27016,2.12066 -0.2965,0.823332 -0.468166,1.7415 -0.514499,2.75433 -0.0464999,1.013 0.0408333,1.93116 0.261833,2.75433 0.225166,0.823332 0.581166,1.53033 1.07567,2.12083 0.490666,0.590499 1.121,1.04733 1.88283,1.36633 0.765999,0.319 1.66883,0.478499 2.708,0.482833zm13.913 -0.258666l2.2155 -6.80182 1.59183 6.80182 3.08066 0 4.29999 -12.9313 -3.83216 0 -1.79933 6.46566 -1.3065 -6.46566 -3.50666 0 -1.9245 6.46566 -1.18133 -6.46566 -3.83216 0 3.114 12.9313 3.08066 0z"/>
  <path class="fil1" d="M99.482 22.3428l7.68549 -7.08382 -7.68549 -7.08416 0 2.5535 4.97866 4.53066 -4.97866 4.47549 0 2.60833zm4.73716 -0.274666l7.68549 -7.08382 -7.68549 -7.08416 0 2.55366 4.97849 4.53049 -4.97849 4.47549 0 2.60833z"/>
  <polygon class="fil2" points="39.8819,0.000333333 37.9256,0.000333333 35.9694,0.000333333 "/>
  <path class="fil2" d="M8.32165 13.4491c-0.272166,0.2935 -0.565832,0.518166 -0.889665,0.664999 -0.323833,0.151 -0.647666,0.2245 -0.980332,0.2245 -0.630332,-0.00433333 -1.153,-0.1555 -1.5675,-0.453499 -0.414666,-0.297833 -0.721166,-0.716832 -0.924165,-1.26083 -0.207333,-0.548499 -0.306666,-1.192 -0.306666,-1.93916 0,-0.746999 0.0993332,-1.39483 0.306666,-1.93883 0.203,-0.544166 0.509499,-0.967332 0.924165,-1.261 0.414499,-0.298 0.937165,-0.449166 1.5675,-0.453499 0.483833,0 0.945832,0.159833 1.382,0.483666 2.16383,1.58566 1.483,1.22333 4.29249,-0.457666 -0.328333,-0.617499 -0.760166,-1.15733 -1.29116,-1.62366 -0.535499,-0.466499 -1.166,-0.829165 -1.90016,-1.08833 -0.729832,-0.259166 -1.559,-0.392999 -2.48316,-0.397333 -1.07517,0.00433333 -2.01666,0.164166 -2.82416,0.483666 -0.803165,0.319666 -1.47683,0.777332 -2.01233,1.369 -0.539833,0.591666 -0.941499,1.29983 -1.2135,2.12466 -0.267833,0.824832 -0.401666,1.74466 -0.401666,2.75933 0,1.01483 0.133833,1.93483 0.401666,2.75966 0.272,0.824665 0.673666,1.533 1.2135,2.12466 0.535499,0.591499 1.20916,1.04917 2.01233,1.36883 0.807499,0.319666 1.749,0.479333 2.82416,0.483666 0.993332,-0.00433333 1.87,-0.1555 2.63433,-0.457666 0.764332,-0.298 1.41633,-0.716999 1.95183,-1.25233 0.535499,-0.539833 0.958832,-1.17033 1.26966,-1.8915 -2.1105,-0.939832 -2.554,-1.965 -3.98583,-0.371333zm15.6636 3.71366c-0.0776666,-0.496499 -0.133833,-0.988832 -0.177,-1.47683 -0.0431666,-0.487999 -0.0689999,-0.984499 -0.0863332,-1.49416 -0.013,-0.509666 -0.0216666,-1.04933 -0.0216666,-1.61516l0 -4.14566c-0.00433333,-0.764332 -0.1425,-1.42933 -0.418833,-1.99066 -0.272,-0.561499 -0.651999,-1.02783 -1.13583,-1.39916 -0.483499,-0.367166 -1.045,-0.643499 -1.67983,-0.820665 -0.638999,-0.181166 -1.32133,-0.272 -2.05116,-0.272 -0.703832,0 -1.36466,0.0864999 -1.9865,0.254833 -0.617499,0.168333 -1.17466,0.414499 -1.66683,0.738332 -0.492333,0.324 -0.898332,0.716999 -1.22216,1.18333 -0.3195,0.462166 -0.535499,0.988999 -0.643499,1.5805 2.04566,0.240666 3.05733,0.836665 4.45666,-0.345333 0.2505,-0.211666 0.595999,-0.324 1.0365,-0.328333 0.3325,0 0.621832,0.0518333 0.867999,0.159833 0.246,0.108 0.440499,0.276333 0.578666,0.500999 0.138166,0.2245 0.2115,0.513833 0.2115,0.867999l0 0.958665c-0.362666,-0.0518333 -0.742832,-0.0949999 -1.13583,-0.1295 -0.392833,-0.0346666 -0.794499,-0.0518333 -1.196,-0.0518333 -0.738499,-0.00433333 -1.4295,0.0518333 -2.07716,0.168333 -0.647832,0.121 -1.21783,0.323833 -1.7145,0.613166 -0.496666,0.289333 -0.885332,0.686666 -1.166,1.19633 -0.285,0.509499 -0.427499,1.153 -0.431833,1.9345 0.00433333,1.35166 0.375666,2.38383 1.10983,3.09633 0.734166,0.712499 1.80083,1.071 3.19133,1.07533 0.427499,0 0.842165,-0.0561666 1.25666,-0.164 0.410333,-0.112333 0.798999,-0.280833 1.166,-0.509666 0.371333,-0.2245 0.703832,-0.509499 0.997499,-0.854999 0.013,0.233166 0.0431666,0.453333 0.0906665,0.664999 0.0474999,0.207166 0.103667,0.410333 0.1685,0.604499l3.67916 0zm-3.93833 -5.28566c-0.00433333,0.487999 -0.1295,0.915499 -0.375666,1.28266 -0.246166,0.366999 -0.569999,0.656332 -0.975999,0.863665 -0.405833,0.207166 -0.850665,0.310833 -1.343,0.315166 -0.418999,0 -0.751332,-0.0863332 -0.997499,-0.259166 -0.246166,-0.172666 -0.371499,-0.440499 -0.375833,-0.803165 0.00433333,-0.358499 0.108,-0.643499 0.311,-0.846499 0.203,-0.202833 0.487999,-0.349666 0.855165,-0.431833 0.366999,-0.0819999 0.798832,-0.125166 1.2955,-0.120833l1.60633 0zm22.2856 10.2087l3.93833 0 7.30682 -18.1373 -3.91249 0 -2.69466 7.66966 -2.66883 -7.66966 -3.96433 0 4.66399 11.5821 -2.66883 6.55516z"/>
  <path class="fil3" d="M32.3873 4.23499c-0.257666,-0.0899999 -0.502499,-0.1545 -0.738666,-0.1975 -0.231833,-0.0386666 -0.459499,-0.0599999 -0.678499,-0.0599999 -0.502499,-0.00433333 -0.961999,0.111667 -1.37433,0.347833 -0.412166,0.236166 -0.777166,0.609832 -1.09933,1.12083l0 -1.21116 -3.63316 0 0 12.8836 3.63316 0 0 -6.64782c-0.00866665,-0.631332 0.0343333,-1.181 0.124666,-1.64483 0.0899999,-0.463833 0.2705,-0.824499 0.540999,-1.08233 0.266333,-0.2575 0.665666,-0.386333 1.1895,-0.390666 0.201833,0 0.420999,0.0171666 0.648499,0.0601666 1.47766,0.273166 1.14316,-1.84616 1.38716,-3.17816zm7.89932 0c-0.257666,-0.0899999 -0.502499,-0.1545 -0.738666,-0.1975 -0.232,-0.0386666 -0.459499,-0.0599999 -0.678666,-0.0599999 -0.502333,-0.00433333 -0.961832,0.111667 -1.37416,0.347833 -0.412333,0.236166 -0.777332,0.609832 -1.0995,1.12083l0 -1.21116 -3.63316 0 0 12.8836 3.63316 0 0 -6.64782c-0.00849999,-0.631332 0.0344999,-1.181 0.124666,-1.64483 0.0901665,-0.463833 0.2705,-0.824499 0.541166,-1.08233 0.266166,-0.2575 0.665666,-0.386333 1.1895,-0.390666 0.201833,0 0.420833,0.0171666 0.648499,0.0601666 1.4775,0.273166 1.14316,-1.84616 1.38716,-3.17816z"/>
 </g>
</svg>
